<svg xmlns="http://www.w3.org/2000/svg" viewBox="0 0 568 98.43">
  <defs>
    <style>
      .cls-1 {
        fill: #e2e2e2;
      }

      .cls-2 {
        fill: #0387da;
      }

      .cls-3 {
        fill: #f94a4f;
      }
    </style>
  </defs>
  <title>Fichier 61</title>
  <g id="Calque_2" data-name="Calque 2">
    <g id="Logo_Data" data-name="Logo Data">
      <g>
        <path class="cls-1" d="M394,79.93a1.5,1.5,0,0,1-1.5,1.5H336.07a1.47,1.47,0,0,1-1.31-.79h0a.39.39,0,0,1,0-.15V17.27a.39.39,0,0,1,0-.15,1.44,1.44,0,0,1,1.31-.8H392.5a1.5,1.5,0,0,1,0,3H337.74V78.43H392.5A1.5,1.5,0,0,1,394,79.93Z"/>
        <path class="cls-1" d="M443.24,79.93a1.5,1.5,0,0,1-1.5,1.5H413.53a1.47,1.47,0,0,1-1.33-.82V17.36a1.5,1.5,0,0,1,3,0V78.43h26.54A1.5,1.5,0,0,1,443.24,79.93Z"/>
        <path class="cls-1" d="M520.44,79.93a1.5,1.5,0,0,1-1.5,1.5H462.5a1.47,1.47,0,0,1-1.33-.82V17.36a1.09,1.09,0,0,1,0-.26,1.44,1.44,0,0,1,1.3-.78h56.44a1.5,1.5,0,0,1,0,3H464.17V78.43h54.77A1.5,1.5,0,0,1,520.44,79.93Z"/>
        <path class="cls-1" d="M565.41,82a33.21,33.21,0,1,1,1.14-66.4A1.49,1.49,0,0,1,568,17.18a1.45,1.45,0,0,1-1.55,1.44,30.36,30.36,0,0,0-22.08,8.5A30.22,30.22,0,0,0,566.45,79h0a1.5,1.5,0,0,1,0,3C566.17,82,565.79,82,565.41,82Z"/>
        <path class="cls-1" d="M50.5,83.89a1.5,1.5,0,0,1-1.5-1.5V19a1.5,1.5,0,0,1,3,0V82.39A1.5,1.5,0,0,1,50.5,83.89Z"/>
        <g>
          <path class="cls-2" d="M136.52,48.2l-1.09,3H116.05a1.5,1.5,0,0,1,0-3Z"/>
          <polygon class="cls-2" points="158.06 48.2 159.15 51.2 138.62 51.2 139.71 48.2 158.06 48.2"/>
          <path class="cls-2" d="M185.36,49.7a1.5,1.5,0,0,1-1.5,1.5H162.35l-1.1-3h22.61A1.5,1.5,0,0,1,185.36,49.7Z"/>
        </g>
        <path class="cls-1" d="M172.76,84.21a1.28,1.28,0,0,1-.51.09,1.49,1.49,0,0,1-1.41-1L159.15,51.2l-1.09-3L148.89,23l-9.18,25.2-1.09,3L126.93,83.32a1.49,1.49,0,0,1-1.41,1,1.31,1.31,0,0,1-.51-.09,1.5,1.5,0,0,1-.9-1.92L135.43,51.2l1.09-3,10.79-29.63a1.76,1.76,0,0,1,3.16,0L161.25,48.2l1.1,3,11.31,31.09A1.5,1.5,0,0,1,172.76,84.21Z"/>
        <g>
          <path class="cls-2" d="M249.94,47.3l-1.09,3H229.14a1.5,1.5,0,0,1,0-3Z"/>
          <polygon class="cls-2" points="270.82 47.3 271.91 50.3 252.04 50.3 253.13 47.3 270.82 47.3"/>
          <path class="cls-2" d="M298.45,48.8a1.5,1.5,0,0,1-1.5,1.5H275.11l-1.09-3H297A1.5,1.5,0,0,1,298.45,48.8Z"/>
        </g>
        <path class="cls-3" d="M366,48.8a1.5,1.5,0,0,1-1.5,1.5H337.74v-3H364.5A1.5,1.5,0,0,1,366,48.8Z"/>
        <path class="cls-3" d="M493,48.8a1.5,1.5,0,0,1-1.5,1.5H464.17v-3H491.5A1.5,1.5,0,0,1,493,48.8Z"/>
        <path class="cls-1" d="M285.85,84.21a1.28,1.28,0,0,1-.51.09,1.49,1.49,0,0,1-1.41-1l-12-33-1.09-3L262,23,253.13,47.3l-1.09,3-12,33a1.49,1.49,0,0,1-1.41,1,1.31,1.31,0,0,1-.51-.09,1.5,1.5,0,0,1-.9-1.92l11.65-32,1.09-3L260.4,18.57a1.76,1.76,0,0,1,3.16,0L274,47.3l1.09,3,11.64,32A1.49,1.49,0,0,1,285.85,84.21Z"/>
        <path class="cls-1" d="M207,20.3V82.8a1.35,1.35,0,1,1-2.69,0V20.3Z"/>
        <path class="cls-2" d="M235.55,18.8a1.5,1.5,0,0,1-1.5,1.5H177.16a1.5,1.5,0,0,1,0-3h56.89A1.5,1.5,0,0,1,235.55,18.8Z"/>
        <path class="cls-1" d="M66.59,83.91l-1.14,0A1.5,1.5,0,0,1,64,82.34a1.52,1.52,0,0,1,1.55-1.45,30.24,30.24,0,0,0,22.08-8.5,29.8,29.8,0,0,0,.21-43.19,30.19,30.19,0,0,0-22.29-8.7A1.47,1.47,0,0,1,64,19.05a1.5,1.5,0,0,1,1.45-1.55,33.22,33.22,0,1,1,1.14,66.41Z"/>
        <path class="cls-2" d="M1.5,91.5a1.5,1.5,0,0,1-1-2.59A128.66,128.66,0,0,0,27.16,53.32a128.11,128.11,0,0,0,8.9-22.73,1.5,1.5,0,0,1,2.88.82,130.78,130.78,0,0,1-9.1,23.27A131.77,131.77,0,0,1,2.53,91.09,1.51,1.51,0,0,1,1.5,91.5Z"/>
        <path class="cls-2" d="M61.48,98.43a47.78,47.78,0,0,1-17.94-3.2c-6.35-2.57-10.94-6.61-12.92-11.35-4.72-11.29,5.46-25.67,8.7-29.8a1.5,1.5,0,0,1,2.36,1.84c-3,3.82-12.39,17-8.3,26.8,1.68,4,5.68,7.46,11.29,9.73,12.16,4.94,29.26,3.7,45.74-3.33a1.5,1.5,0,1,1,1.18,2.76A77.88,77.88,0,0,1,61.48,98.43Z"/>
        <circle class="cls-2" cx="50.5" cy="6" r="6"/>
        <circle class="cls-3" cx="315.5" cy="48.87" r="6"/>
      </g>
    </g>
  </g>
</svg>
