<svg xmlns="http://www.w3.org/2000/svg" viewBox="0 0 450.96 78.14">
  <title>Fichier 60</title>
  <g id="Calque_2" data-name="Calque 2">
    <g id="Logo_Data" data-name="Logo Data">
      <g>
        <path d="M312.81,63.46a1.19,1.19,0,0,1-1.19,1.19h-44.8a1.18,1.18,0,0,1-1-.63h0a.25.25,0,0,1,0-.12V13.71a.25.25,0,0,1,0-.12,1.14,1.14,0,0,1,1-.64h44.8a1.2,1.2,0,0,1,0,2.39H268.14V62.27h43.48A1.19,1.19,0,0,1,312.81,63.46Z"/>
        <path d="M351.9,63.46a1.19,1.19,0,0,1-1.19,1.19H328.32a1.17,1.17,0,0,1-1.06-.65V13.78a1.19,1.19,0,1,1,2.38,0V62.27h21.07A1.19,1.19,0,0,1,351.9,63.46Z"/>
        <path d="M413.2,63.46A1.19,1.19,0,0,1,412,64.65H367.2a1.17,1.17,0,0,1-1.06-.65V13.78a1.49,1.49,0,0,1,0-.21,1.16,1.16,0,0,1,1-.62H412a1.2,1.2,0,0,1,0,2.39H368.52V62.27H412A1.19,1.19,0,0,1,413.2,63.46Z"/>
        <path d="M448.9,65.13a26.63,26.63,0,0,1-26.52-26.62,26.6,26.6,0,0,1,27.43-26.1A1.19,1.19,0,0,1,451,13.64a1.16,1.16,0,0,1-1.23,1.15,24.06,24.06,0,0,0-17.53,6.74A23.65,23.65,0,0,0,432,55.82a23.94,23.94,0,0,0,17.69,6.91h0a1.19,1.19,0,0,1,0,2.38Z"/>
        <path d="M40.09,66.6a1.19,1.19,0,0,1-1.19-1.19V15.08a1.2,1.2,0,0,1,2.39,0V65.41A1.19,1.19,0,0,1,40.09,66.6Z"/>
        <g>
          <path class="cls-1" d="M108.39,38.26l-.87,2.39H92.14a1.2,1.2,0,1,1,0-2.39Z"/>
          <polygon class="cls-1" points="125.49 38.27 126.35 40.65 110.05 40.65 110.92 38.27 125.49 38.27"/>
          <path class="cls-1" d="M147.16,39.46A1.19,1.19,0,0,1,146,40.65H128.89L128,38.26H146A1.19,1.19,0,0,1,147.16,39.46Z"/>
        </g>
        <path d="M137.16,66.85a1,1,0,0,1-.41.08,1.18,1.18,0,0,1-1.11-.78l-9.29-25.5-.86-2.39-7.28-20-7.29,20-.87,2.39-9.28,25.5a1.18,1.18,0,0,1-1.12.78,1,1,0,0,1-.4-.08,1.19,1.19,0,0,1-.72-1.52l9-24.68.87-2.39L117,14.74a1.4,1.4,0,0,1,2.51,0L128,38.26l.87,2.39,9,24.68A1.17,1.17,0,0,1,137.16,66.85Z"/>
        <g>
          <path class="cls-1" d="M198.44,37.55l-.87,2.38H181.92a1.19,1.19,0,1,1,0-2.38Z"/>
          <polygon class="cls-1" points="215.01 37.55 215.88 39.93 200.1 39.93 200.97 37.55 215.01 37.55"/>
          <path class="cls-1" d="M237,38.74a1.19,1.19,0,0,1-1.19,1.19H218.42l-.87-2.38h18.21A1.19,1.19,0,0,1,237,38.74Z"/>
        </g>
        <path class="cls-2" d="M290.58,38.74a1.19,1.19,0,0,1-1.19,1.19H268.14V37.55h21.25A1.19,1.19,0,0,1,290.58,38.74Z"/>
        <path class="cls-2" d="M391.41,38.74a1.19,1.19,0,0,1-1.19,1.19h-21.7V37.55h21.7A1.19,1.19,0,0,1,391.41,38.74Z"/>
        <path d="M227,66.85a1,1,0,0,1-.41.08,1.2,1.2,0,0,1-1.12-.78l-9.54-26.22L215,37.55l-7-19.31-7,19.31-.87,2.38-9.54,26.22a1.19,1.19,0,0,1-1.12.78,1,1,0,0,1-.4-.08,1.19,1.19,0,0,1-.72-1.52l9.25-25.4.87-2.38,8.3-22.81A1.19,1.19,0,0,1,208,14a1.21,1.21,0,0,1,1.26.78l8.3,22.81.87,2.38,9.24,25.4A1.17,1.17,0,0,1,227,66.85Z"/>
        <path d="M164.3,16.11V65.74a1.07,1.07,0,1,1-2.13,0V16.11Z"/>
        <path class="cls-1" d="M187,14.92a1.19,1.19,0,0,1-1.19,1.19H140.65a1.19,1.19,0,1,1,0-2.38h45.17A1.19,1.19,0,0,1,187,14.92Z"/>
        <path d="M52.87,66.62l-.91,0a1.19,1.19,0,0,1-1.15-1.23A1.21,1.21,0,0,1,52,64.22a24,24,0,0,0,17.53-6.74,23.66,23.66,0,0,0,.17-34.29A24,24,0,0,0,52,16.27a1.17,1.17,0,0,1-1.23-1.15A1.21,1.21,0,0,1,52,13.89,26.61,26.61,0,0,1,79.39,40.5a26,26,0,0,1-8.17,18.69A26.36,26.36,0,0,1,52.87,66.62Z"/>
        <path class="cls-1" d="M1.19,72.65a1.19,1.19,0,0,1-.82-2.06,102.43,102.43,0,0,0,21.2-28.26,101.86,101.86,0,0,0,7.06-18,1.19,1.19,0,1,1,2.29.65,104.41,104.41,0,0,1-7.23,18.47A104.62,104.62,0,0,1,2,72.32,1.19,1.19,0,0,1,1.19,72.65Z"/>
        <path class="cls-1" d="M48.81,78.14a37.71,37.71,0,0,1-14.24-2.53c-5-2-8.69-5.25-10.26-9-3.75-9,4.34-20.38,6.91-23.67a1.19,1.19,0,0,1,1.87,1.47c-2.36,3-9.83,13.51-6.59,21.28,1.33,3.17,4.51,5.92,9,7.72,9.66,3.92,23.24,2.93,36.32-2.64a1.18,1.18,0,0,1,1.56.62A1.2,1.2,0,0,1,72.72,73,62,62,0,0,1,48.81,78.14Z"/>
        <circle class="cls-1" cx="40.09" cy="4.76" r="4.76"/>
        <circle class="cls-2" cx="250.49" cy="38.8" r="4.76"/>
      </g>
    </g>
  </g>
</svg>
